<?xml version="1.0" encoding="UTF-8"?><svg id="Ebene_1" xmlns="http://www.w3.org/2000/svg" xmlns:xlink="http://www.w3.org/1999/xlink" viewBox="0 0 2100 1162.14"><defs><style>.cls-1{fill:url(#Unbenannter_Verlauf_14-3);}.cls-1,.cls-2,.cls-3,.cls-4{stroke-width:0px;}.cls-2{fill:url(#Unbenannter_Verlauf_14-2);}.cls-3{fill:#004b50;}.cls-4{fill:url(#Unbenannter_Verlauf_14);}</style><linearGradient id="Unbenannter_Verlauf_14" x1="13103.1" y1="-15715.49" x2="13877.95" y2="-15507.87" gradientTransform="translate(14137.96 -15318.19) rotate(-180)" gradientUnits="userSpaceOnUse"><stop offset=".2" stop-color="#004b50" stop-opacity="0"/><stop offset=".52" stop-color="rgba(0,75,80,.52)" stop-opacity=".52"/><stop offset=".8" stop-color="rgba(0,75,80,.87)" stop-opacity=".87"/><stop offset=".95" stop-color="#004b50"/></linearGradient><linearGradient id="Unbenannter_Verlauf_14-2" x1="11853.68" y1="-10771.91" x2="12661.41" y2="-10555.48" gradientTransform="translate(-11852.18 11239.77)" xlink:href="#Unbenannter_Verlauf_14"/><linearGradient id="Unbenannter_Verlauf_14-3" x1="13225.01" y1="-16291.55" x2="13999.87" y2="-16083.93" xlink:href="#Unbenannter_Verlauf_14"/></defs><path class="cls-4" d="M352.45,175.94c-63.86,0-115.62,51.77-115.62,115.62s51.77,115.62,115.62,115.62h554.97l50.48-227.35c-10.29-2.54-20.75-3.89-31.07-3.89H352.45Z"/><path class="cls-2" d="M717.56,695.16c63.86,0,115.62-51.77,115.62-115.62s-51.77-115.62-115.62-115.62H154.61l-51.32,231.15c1.56.06,3.11.1,4.66.1h609.61Z"/><path class="cls-1" d="M230.56,751.89c-63.86,0-115.62,51.77-115.62,115.62s51.77,115.62,115.62,115.62h548.98l50.76-228.63c-8.44-1.71-16.95-2.62-25.37-2.62H230.56Z"/><path class="cls-3" d="M981.16,275.8c0-59.45,43.47-100.6,102.1-100.6,46,0,81.12,25.03,82.64,65.95h-56.86c0-13.48-9.86-23.83-27.8-23.83h-1.52c-25.52,0-42.96,26.47-42.96,54.88,0,20.22,8.85,35.38,31.84,35.38h1.77c13.65,0,24.77-7.22,32.1-19.49l1.01-1.69h-34.12l7.83-34.9h58.38c18.45,0,28.3,11.07,24.77,27.2l-15.16,67.39h-40.44l3.79-16.37c-13.14,12.03-30.33,18.53-53.07,18.53-42.2,0-74.3-27.92-74.3-72.45Z"/><path class="cls-3" d="M1207.09,177.6h87.95c41.45,0,61.16,19.74,61.16,42.84s-13.9,40.67-43.47,47.17c21.48,3.37,27.29,17.33,24.01,31.77l-10.36,46.69h-55.6l8.85-40.19c2.53-10.59-3.03-16.37-14.66-16.37h-26.79l-12.64,56.56h-56.11l37.66-168.48ZM1279.37,249.81c13.65,0,19.46-8.67,19.46-17.81,0-7.7-5.31-13.48-17.44-13.48h-27.8l-7.08,31.29h32.85Z"/><path class="cls-3" d="M1447.18,177.6h64.44l30.83,168.48h-54.33l-4.55-32.49h-66.21l-19.97,32.49h-60.65l110.44-168.48ZM1478.02,273.88l-6.57-48.62-29.82,48.62h36.39Z"/><path class="cls-3" d="M1595.54,177.6h66.97l26.79,104.21,23.25-104.21h51.81l-37.66,168.48h-66.97l-26.79-104.46-23.25,104.46h-51.81l37.66-168.48Z"/><path class="cls-3" d="M1792.41,177.6h67.22c53.33,0,87.7,31.05,87.7,75.57,0,52.95-42.46,92.9-99.83,92.9h-92.75l37.66-168.48ZM1849.27,303.96c24.01,0,42.46-22.14,42.46-51.51,0-18.29-11.88-32.73-32.1-32.73h-20.98l-18.95,84.24h29.57Z"/><path class="cls-3" d="M964.4,390.22h76.58c49.53,0,71.27,19.5,71.27,49.82,0,40.92-27.04,66.19-71.02,66.19h-47.26l-11.62,52.47h-55.6l37.66-168.48ZM1036.18,465.31c13.39,0,20.47-9.39,20.47-19.98,0-8.18-5.31-14.2-16.17-14.2h-29.57l-7.83,34.18h33.11Z"/><path class="cls-3" d="M1143.84,390.22h87.95c41.45,0,61.16,19.74,61.16,42.84s-13.9,40.67-43.47,47.17c21.48,3.37,27.29,17.33,24.01,31.77l-10.36,46.69h-55.6l8.85-40.19c2.53-10.59-3.03-16.37-14.66-16.37h-26.79l-12.64,56.56h-56.11l37.66-168.48ZM1216.12,462.42c13.65,0,19.46-8.66,19.46-17.81,0-7.7-5.31-13.48-17.44-13.48h-27.8l-7.08,31.29h32.85Z"/><path class="cls-3" d="M1325.55,390.22h55.6l-37.66,168.48h-55.6l37.66-168.48Z"/><path class="cls-3" d="M1445.09,468.68l-39.93-78.46h60.65l18.95,37.31,36.14-37.31h68.24l-80.62,83.52,43.22,84.96h-60.65l-22.24-43.8-42.46,43.8h-68.24l86.94-90.01Z"/><path class="cls-3" d="M913.77,602.83h53.07l-1.26,107.1,44.23-107.1h60.65l-4.04,106.38,47.01-106.38h58.13l-81.12,168.48h-66.97l3.29-98.2-40.44,98.2h-67.22l-5.31-168.48Z"/><path class="cls-3" d="M1187.97,602.83h55.6l-37.66,168.48h-55.6l37.66-168.48Z"/><path class="cls-3" d="M1271.37,602.83h66.97l26.79,104.21,23.25-104.21h51.81l-37.66,168.48h-66.97l-26.79-104.46-23.25,104.46h-51.81l37.66-168.48Z"/><path class="cls-3" d="M1509.19,648.56h-60.65l10.36-45.73h176.91l-10.36,45.73h-60.65l-27.29,122.75h-55.6l27.29-122.75Z"/><path class="cls-3" d="M1654.25,602.83h146.58l-9.35,42.12h-90.98l-4.55,20.46h75.31l-9.35,40.92h-75.31l-5.05,22.87h93.51l-9.35,42.12h-149.11l37.66-168.48Z"/><path class="cls-3" d="M1825.6,602.83h87.95c41.45,0,61.16,19.74,61.16,42.84s-13.9,40.67-43.47,47.17c21.48,3.37,27.29,17.33,24.01,31.77l-10.36,46.69h-55.6l8.85-40.19c2.53-10.59-3.03-16.37-14.66-16.37h-26.79l-12.64,56.56h-56.11l37.66-168.48ZM1897.88,675.03c13.65,0,19.46-8.67,19.46-17.81,0-7.7-5.31-13.48-17.44-13.48h-27.8l-7.08,31.29h32.85Z"/><path class="cls-3" d="M922.8,861.17h-60.65l10.36-45.73h176.91l-10.36,45.73h-60.65l-27.29,122.75h-55.6l27.29-122.75Z"/><path class="cls-3" d="M1068.11,815.44h55.6l-13.9,62.58h55.6l13.9-62.58h55.6l-37.66,168.48h-55.6l14.15-63.78h-55.6l-14.15,63.78h-55.6l37.66-168.48Z"/><path class="cls-3" d="M1238.7,916.52l22.49-101.09h55.6l-22.74,101.57c-3.29,14.2,3.03,25.99,21.73,25.99h1.77c17.69,0,23.25-9.87,26.54-24.07l23.25-103.49h55.6l-24.51,109.51c-8.59,38.51-31.59,61.37-84.66,61.37-60.4,0-83.65-31.29-75.06-69.8Z"/><path class="cls-3" d="M1449.47,815.44h87.95c41.45,0,61.16,19.74,61.16,42.84s-13.9,40.67-43.47,47.17c21.48,3.37,27.29,17.33,24.01,31.77l-10.36,46.69h-55.6l8.84-40.19c2.53-10.59-3.03-16.37-14.66-16.37h-26.79l-12.64,56.56h-56.11l37.66-168.48ZM1521.75,887.64c13.65,0,19.46-8.66,19.46-17.81,0-7.7-5.31-13.48-17.44-13.48h-27.8l-7.08,31.29h32.85Z"/></svg>